<svg xmlns="http://www.w3.org/2000/svg" viewBox="0 0 200 140" width="200" height="140">
  <defs>
    <radialGradient id="cs-bg" cx="30%" cy="40%" r="90%">
      <stop offset="0%" stop-color="#1e2a45"/>
      <stop offset="100%" stop-color="#0a0e17"/>
    </radialGradient>
    <linearGradient id="cs-flame" x1="0" x2="0" y1="0" y2="1">
      <stop offset="0%" stop-color="#00b4d8"/>
      <stop offset="100%" stop-color="#0a0e17" stop-opacity="0"/>
    </linearGradient>
  </defs>
  <rect width="200" height="140" fill="url(#cs-bg)"/>
  <g fill="#e0e0e0">
    <circle cx="25" cy="20" r="0.8"/>
    <circle cx="70" cy="15" r="0.6"/>
    <circle cx="170" cy="25" r="1"/>
    <circle cx="185" cy="55" r="0.7"/>
    <circle cx="15" cy="90" r="0.6"/>
    <circle cx="45" cy="40" r="0.5"/>
    <circle cx="130" cy="110" r="0.7"/>
    <circle cx="155" cy="80" r="0.5"/>
    <circle cx="95" cy="25" r="0.5"/>
    <circle cx="110" cy="60" r="0.4"/>
  </g>
  <g>
    <ellipse cx="150" cy="45" rx="30" ry="7" fill="none" stroke="#00b4d8" stroke-width="1" opacity="0.5"/>
    <circle cx="150" cy="45" r="15" fill="#141b2d" stroke="#00b4d8" stroke-width="1"/>
    <ellipse cx="150" cy="45" rx="30" ry="7" fill="none" stroke="#00b4d8" stroke-width="0.8" opacity="0.9" stroke-dasharray="4 2"/>
    <circle cx="145" cy="42" r="2" fill="#00b4d8" opacity="0.4"/>
    <circle cx="153" cy="48" r="1.5" fill="#00b4d8" opacity="0.3"/>
  </g>
  <g transform="translate(55 105) rotate(-25)">
    <path d="M 0 0 Q 4 -32 8 -46 Q 12 -32 16 0 Z" fill="#00b4d8" stroke="#0a0e17" stroke-width="0.8"/>
    <circle cx="8" cy="-22" r="3.2" fill="#0a0e17"/>
    <circle cx="8" cy="-22" r="2" fill="#e0e0e0"/>
    <path d="M 0 0 L -7 10 L 1 -4 Z" fill="#0077b6"/>
    <path d="M 16 0 L 23 10 L 15 -4 Z" fill="#0077b6"/>
    <path d="M 2 0 Q 8 18 14 0 Q 10 12 6 16 Q 4 12 2 0 Z" fill="url(#cs-flame)" opacity="0.9"/>
  </g>
</svg>
