<svg xmlns="http://www.w3.org/2000/svg" viewBox="0 0 200 140" width="200" height="140">
  <defs>
    <linearGradient id="cp-sky" x1="0" y1="0" x2="0" y2="1">
      <stop offset="0%" stop-color="#0a0e17"/>
      <stop offset="60%" stop-color="#141b2d"/>
      <stop offset="100%" stop-color="#00b4d8" stop-opacity="0.35"/>
    </linearGradient>
  </defs>
  <rect width="200" height="140" fill="url(#cp-sky)"/>
  <circle cx="155" cy="30" r="11" fill="#141b2d" stroke="#00b4d8" stroke-width="1"/>
  <circle cx="158" cy="28" r="9" fill="#00b4d8" opacity="0.25"/>
  <g fill="#0a0e17" stroke="#00b4d8" stroke-width="0.8">
    <rect x="10" y="60" width="20" height="50"/>
    <rect x="32" y="40" width="18" height="70"/>
    <rect x="52" y="70" width="14" height="40"/>
    <rect x="68" y="30" width="22" height="80"/>
    <rect x="92" y="55" width="16" height="55"/>
    <rect x="110" y="45" width="20" height="65"/>
    <rect x="132" y="65" width="14" height="45"/>
    <rect x="148" y="50" width="18" height="60"/>
    <rect x="168" y="70" width="22" height="40"/>
  </g>
  <g fill="#00b4d8">
    <rect x="14" y="70" width="2" height="3"/>
    <rect x="20" y="76" width="2" height="3"/>
    <rect x="14" y="86" width="2" height="3"/>
    <rect x="22" y="96" width="2" height="3"/>
    <rect x="36" y="50" width="2" height="3"/>
    <rect x="42" y="60" width="2" height="3"/>
    <rect x="36" y="72" width="2" height="3"/>
    <rect x="42" y="84" width="2" height="3"/>
    <rect x="36" y="96" width="2" height="3"/>
    <rect x="56" y="76" width="2" height="3"/>
    <rect x="60" y="88" width="2" height="3"/>
    <rect x="56" y="100" width="2" height="3"/>
    <rect x="72" y="40" width="2" height="3"/>
    <rect x="80" y="50" width="2" height="3"/>
    <rect x="72" y="62" width="2" height="3"/>
    <rect x="82" y="74" width="2" height="3"/>
    <rect x="72" y="88" width="2" height="3"/>
    <rect x="82" y="100" width="2" height="3"/>
    <rect x="96" y="65" width="2" height="3"/>
    <rect x="102" y="75" width="2" height="3"/>
    <rect x="96" y="88" width="2" height="3"/>
    <rect x="102" y="100" width="2" height="3"/>
    <rect x="114" y="55" width="2" height="3"/>
    <rect x="122" y="68" width="2" height="3"/>
    <rect x="114" y="80" width="2" height="3"/>
    <rect x="124" y="94" width="2" height="3"/>
    <rect x="136" y="75" width="2" height="3"/>
    <rect x="140" y="90" width="2" height="3"/>
    <rect x="152" y="58" width="2" height="3"/>
    <rect x="160" y="70" width="2" height="3"/>
    <rect x="152" y="84" width="2" height="3"/>
    <rect x="162" y="96" width="2" height="3"/>
    <rect x="172" y="80" width="2" height="3"/>
    <rect x="180" y="92" width="2" height="3"/>
  </g>
  <g stroke="#00b4d8" stroke-width="0.5" opacity="0.55" fill="none">
    <line x1="0" y1="112" x2="200" y2="112"/>
    <line x1="0" y1="120" x2="200" y2="120"/>
    <line x1="0" y1="130" x2="200" y2="130"/>
    <line x1="100" y1="110" x2="40" y2="140"/>
    <line x1="100" y1="110" x2="70" y2="140"/>
    <line x1="100" y1="110" x2="100" y2="140"/>
    <line x1="100" y1="110" x2="130" y2="140"/>
    <line x1="100" y1="110" x2="160" y2="140"/>
  </g>
</svg>
