<svg xmlns="http://www.w3.org/2000/svg" viewBox="0 0 200 140" width="200" height="140">
  <defs>
    <radialGradient id="so-gal" cx="50%" cy="50%" r="50%">
      <stop offset="0%" stop-color="#e0e0e0" stop-opacity="0.95"/>
      <stop offset="25%" stop-color="#00b4d8" stop-opacity="0.7"/>
      <stop offset="60%" stop-color="#0077b6" stop-opacity="0.4"/>
      <stop offset="100%" stop-color="#0a0e17" stop-opacity="0"/>
    </radialGradient>
  </defs>
  <rect width="200" height="140" fill="#0a0e17"/>
  <g fill="#e0e0e0">
    <circle cx="15" cy="15" r="0.7"/>
    <circle cx="50" cy="25" r="0.5"/>
    <circle cx="90" cy="10" r="0.6"/>
    <circle cx="130" cy="18" r="0.5"/>
    <circle cx="175" cy="30" r="0.8"/>
    <circle cx="20" cy="70" r="0.6"/>
    <circle cx="180" cy="100" r="0.5"/>
    <circle cx="35" cy="125" r="0.7"/>
    <circle cx="165" cy="125" r="0.5"/>
    <circle cx="115" cy="128" r="0.6"/>
    <circle cx="8" cy="45" r="0.4"/>
    <circle cx="195" cy="65" r="0.5"/>
    <circle cx="78" cy="120" r="0.5"/>
    <circle cx="60" cy="40" r="0.4"/>
    <circle cx="140" cy="110" r="0.5"/>
    <circle cx="190" cy="15" r="0.7"/>
  </g>
  <g transform="translate(100 70)">
    <ellipse cx="0" cy="0" rx="72" ry="22" fill="url(#so-gal)" transform="rotate(-18)"/>
    <g fill="none" stroke="#00b4d8" stroke-width="0.8" opacity="0.6" transform="rotate(-18)">
      <path d="M -60 -5 Q -30 -20 0 -6 Q 30 8 60 -2"/>
      <path d="M -58 8 Q -25 22 5 10 Q 35 -2 58 5"/>
    </g>
    <circle cx="0" cy="0" r="10" fill="#00b4d8" opacity="0.3"/>
    <circle cx="0" cy="0" r="5" fill="#e0e0e0"/>
  </g>
  <g>
    <circle cx="30" cy="120" r="18" fill="#141b2d" stroke="#00b4d8" stroke-width="1"/>
    <path d="M 18 116 Q 30 112 42 118 Q 32 120 22 122 Z" fill="#00b4d8" opacity="0.25"/>
    <path d="M 14 124 Q 30 128 46 124" fill="none" stroke="#00b4d8" stroke-width="0.6" opacity="0.5"/>
    <path d="M 20 130 Q 30 133 40 130" fill="none" stroke="#00b4d8" stroke-width="0.5" opacity="0.4"/>
  </g>
</svg>
